<svg width="321" height="321" viewBox="0 0 321 321" fill="none" xmlns="http://www.w3.org/2000/svg">
<path fill-rule="evenodd" clip-rule="evenodd" d="M270.169 50.48C249.153 29.4518 214.555 29.4211 193.53 50.457C172.188 71.7908 172.058 108.222 194.821 128.641C216.437 148.001 250.157 147.549 270.592 126.675C291.267 105.556 291.05 71.3511 270.169 50.48ZM133.701 58.3316C131.781 55.511 129.605 52.8819 127.202 50.48C117.396 40.6691 103.842 34.6102 88.87 34.6102C38.938 34.6102 16.4832 96.913 51.8531 128.641C73.4476 147.981 107.175 147.562 127.624 126.675C129.821 124.43 131.821 121.993 133.6 119.395C134.841 123.547 136.327 127.586 138.048 131.428C141.462 139.054 145.758 146.043 150.757 152.347C147.878 155.151 144.804 157.763 141.553 160.16C154.54 169.769 164.713 182.714 170.924 197.687C173.7 204.378 175.681 211.47 176.747 218.842H142.602L141.553 218.828C139.186 208.962 134.127 200.154 127.202 193.231C106.076 172.097 71.7077 172.053 50.5635 193.207C29.2201 214.542 29.0908 250.973 51.8531 271.391C73.4696 290.753 107.19 290.299 127.624 269.425C129.822 267.181 131.822 264.744 133.601 262.145C134.842 266.297 136.328 270.336 138.049 274.179C141.463 281.803 145.759 288.793 150.758 295.097C143.141 302.516 134.149 308.589 124.15 312.881C102.727 322.098 78.5475 322.404 56.7988 314.12C9.83785 296.24 -12.1887 243.518 6.81795 197.687C12.9976 182.793 23.1659 169.818 36.0868 160.232C23.6392 151.26 14.223 139.86 7.84406 125.612C-2.07604 103.459 -2.47652 77.3459 6.81795 54.9361C15.8441 33.1778 33.2565 15.7635 55.0139 6.73444C65.4743 2.39715 76.9168 0 88.87 0C112.198 0 134.361 9.16611 151.011 25.4757C145.256 32.8032 140.47 40.9211 136.861 49.6206C135.681 52.4633 134.626 55.3692 133.701 58.3316ZM320.628 231.539C320.628 243.268 318.284 254.586 314.028 264.991C305.248 286.44 288.436 303.734 267.117 312.881C245.695 322.098 221.515 322.404 199.766 314.12C165.859 301.211 143.939 270.303 143.079 233.677H177.68C178.085 248.119 183.957 261.648 194.821 271.391C230.118 303.005 286.016 278.443 286.016 231.539L285.909 159.112C280.182 163.51 273.879 167.227 267.117 170.13C245.695 179.348 221.515 179.653 199.766 171.369C177.727 162.976 160.405 147.039 150.811 125.612C140.891 103.459 140.491 77.3459 149.786 54.9361C158.812 33.1778 176.224 15.7635 197.981 6.73444C219.552 -2.2084 244.121 -2.20744 265.691 6.73444C287.461 15.7683 304.861 33.1653 313.892 54.9361C318.349 65.6849 320.628 77.1638 320.628 88.7884V231.539Z" fill="white"/>
</svg>
