<?xml version="1.0" encoding="utf-8"?>
<!-- Generator: Adobe Illustrator 26.5.0, SVG Export Plug-In . SVG Version: 6.00 Build 0)  -->
<svg version="1.1" id="Лого" xmlns="http://www.w3.org/2000/svg" xmlns:xlink="http://www.w3.org/1999/xlink" x="0px" y="0px"
	 viewBox="0 0 718 499" style="enable-background:new 0 0 718 499;" xml:space="preserve">
<style type="text/css">
	.st0{fill:#1C1C1C;}
	.st1{fill:#FFFFFF;}
	.st2{fill:#EB5B27;}
</style>
<rect id="Фон" y="0" class="st0" width="718" height="499"/>
<path id="Дискриптор_00000170990939885781071160000008363694692307618982_" class="st1" d="M164.7,382.57l6.75,15.89
	h-3.07l-1.09-2.5h-10.83l-1.09,2.5h-3.13l6.95-15.89H164.7z M157.55,393.37h8.56l-3.33-8.19h-1.81L157.55,393.37z M178.98,382.57
	v6.15h5.54l4.19-6.15h3.36l-5.06,7.35l5.46,8.53h-3.45l-4.42-7.1h-5.63v7.1h-2.9v-15.89H178.98z M199.75,382.57v13.24h9.6v-13.24
	h2.9v13.24H214v5.83h-2.47l-0.26-3.19h-14.45v-15.89H199.75z M221.35,382.57v12.01l10.6-12.01h2.9v15.89h-2.9V386.5l-10.57,11.95
	h-2.93v-15.89H221.35z M248.58,398.85c-4.91,0-8.88-3.3-8.88-8.33c0-5.03,3.96-8.33,8.88-8.33c4.91,0,8.88,3.3,8.88,8.33
	C257.46,395.55,253.49,398.85,248.58,398.85z M248.58,396.33c3.36,0,5.98-2.15,5.98-5.8s-2.61-5.8-5.98-5.8
	c-3.33,0-5.95,2.15-5.95,5.8S245.25,396.33,248.58,396.33z M265.27,382.57v6.35h10.2v-6.35h2.9v15.89h-2.9v-6.92h-10.2v6.92h-2.93
	v-15.89H265.27z M297.82,382.57v2.64h-11.29v3.82h10.17v2.61h-10.17v4.14h11.72v2.67H283.6v-15.89H297.82z M312.56,382.57
	c3.65,0,6.46,2.44,6.46,6.15c0,3.71-2.82,6.06-6.46,6.06h-6.41v3.68h-2.93v-15.89H312.56z M306.15,392.1h6.29
	c2.18,0,3.68-1.26,3.68-3.39c0-2.15-1.49-3.48-3.68-3.48h-6.29V392.1z M326.55,382.57v6.35h10.2v-6.35h2.9v15.89h-2.9v-6.92h-10.2
	v6.92h-2.93v-15.89H326.55z M353.41,398.85c-4.91,0-8.88-3.3-8.88-8.33c0-5.03,3.96-8.33,8.88-8.33c4.91,0,8.88,3.3,8.88,8.33
	C362.28,395.55,358.32,398.85,353.41,398.85z M353.41,396.33c3.36,0,5.98-2.15,5.98-5.8s-2.61-5.8-5.98-5.8
	c-3.33,0-5.95,2.15-5.95,5.8S350.07,396.33,353.41,396.33z M381.39,382.57v2.64H370.1v3.82h10.17v2.61H370.1v4.14h11.72v2.67h-14.65
	v-15.89H381.39z M406.18,398.85c-4.91,0-8.88-3.3-8.88-8.33c0-5.03,3.96-8.33,8.88-8.33c4.91,0,8.88,3.3,8.88,8.33
	C415.06,395.55,411.09,398.85,406.18,398.85z M406.18,396.33c3.36,0,5.98-2.15,5.98-5.8s-2.61-5.8-5.98-5.8
	c-3.33,0-5.95,2.15-5.95,5.8S402.85,396.33,406.18,396.33z M433.5,382.57v2.64h-10.66v2.84h7.18c3.16,0,5.49,2.1,5.49,5.11
	c0,2.93-2.33,5.29-5.49,5.29h-10.08v-15.89H433.5z M422.84,395.81h6.92c2.04,0,2.84-1.15,2.84-2.64c0-1.46-0.83-2.53-2.87-2.53h-6.9
	V395.81z M440.1,398.45v-15.89h2.87v13.24h6.98v-13.24h2.87v13.24h6.95v-13.24h2.87v13.24h1.75v5.83h-2.47l-0.26-3.19H440.1z
	 M483.08,382.57v2.64h-11.29v3.82h10.17v2.61h-10.17v4.14h11.72v2.67h-14.65v-15.89H483.08z M502.24,387.51
	c-1.26-1.72-3.05-2.7-5.66-2.7c-3.56,0-5.86,2.24-5.86,5.72c0,3.36,2.38,5.72,5.86,5.72c2.64,0,4.34-0.98,5.66-2.73l2.3,1.35
	c-1.67,2.56-4.28,3.99-7.9,3.99c-5.06,0-8.82-3.19-8.82-8.33c0-5.17,3.85-8.33,8.82-8.33c3.56,0,6.23,1.41,7.87,3.99L502.24,387.51z
	 M524.76,382.57v2.64h-6.75v13.24h-2.93v-13.24h-6.75v-2.64H524.76z M539.44,382.57c2.87,0,4.85,1.61,4.85,4.11
	c0,1.29-0.43,2.27-1.35,2.9c1.55,0.69,2.47,2.1,2.47,3.99c0,2.67-2.13,4.88-5.26,4.88H529.3v-15.89H539.44z M532.23,388.89h7.47
	c1.12,0,1.75-0.89,1.75-1.81c0-0.98-0.52-1.87-2.18-1.87h-7.04V388.89z M532.23,395.81h7.81c1.67,0,2.53-0.98,2.53-2.21
	c0-1.35-0.92-2.15-2.24-2.15h-8.1V395.81z M558.6,398.85c-4.91,0-8.88-3.3-8.88-8.33c0-5.03,3.96-8.33,8.88-8.33
	c4.91,0,8.88,3.3,8.88,8.33C567.48,395.55,563.52,398.85,558.6,398.85z M558.6,396.33c3.36,0,5.98-2.15,5.98-5.8s-2.61-5.8-5.98-5.8
	c-3.33,0-5.95,2.15-5.95,5.8S555.27,396.33,558.6,396.33z"/>
<path id="Ямалавтодор_00000072983369687120266220000003944304528049241260_" class="st1" d="M190.05,333.7h9.88v32.23
	h-9.02v-20.55l-13.96,16.79l-13.96-16.79v20.55h-9.02V333.7h9.88l13.1,15.82L190.05,333.7z M387.2,351.77
	c0.91,1.27,1.37,2.82,1.37,4.58c0,1.39-0.3,2.68-0.89,3.86c-0.59,1.17-1.44,2.2-2.53,3.06c-1.07,0.85-2.38,1.51-3.9,1.97
	c-1.49,0.46-3.2,0.69-5.08,0.69h-27.51V333.7h26.66c1.85,0,3.61,0.35,5.24,1.04c1.64,0.7,3.02,1.66,4.11,2.87
	c1.51,1.67,2.28,3.6,2.28,5.74c0,1.4-0.29,2.64-0.86,3.7c-0.41,0.76-0.98,1.46-1.7,2.11C385.56,349.93,386.5,350.8,387.2,351.77z
	 M357.69,345.69h17.9c0.61,0,1.13-0.22,1.6-0.66c0.45-0.44,0.67-0.99,0.67-1.69c0-0.66-0.22-1.18-0.67-1.59
	c-0.48-0.43-1.1-0.64-1.89-0.64h-17.6V345.69z M379.43,355.98c0-0.85-0.3-1.52-0.92-2.05c-0.64-0.55-1.58-0.83-2.79-0.83h-18.03
	v5.43h17.9c1.34,0,2.35-0.24,2.98-0.72C379.16,357.37,379.43,356.79,379.43,355.98z M390.56,341.11h14.61v24.82h9.02v-24.82h14.61
	v-7.41h-38.25V341.11z M473.62,349.77c0,4.77-1.88,8.75-5.58,11.83c-2.01,1.66-4.42,2.96-7.14,3.87c-2.71,0.9-5.72,1.35-8.95,1.35
	c-3.2,0-6.21-0.45-8.93-1.35c-2.74-0.9-5.13-2.2-7.12-3.87c-1.83-1.5-3.23-3.28-4.15-5.27c-0.92-1.99-1.39-4.19-1.39-6.55
	c0-2.34,0.47-4.52,1.41-6.5c0.94-1.98,2.34-3.74,4.17-5.25c2.01-1.66,4.43-2.97,7.17-3.89c2.73-0.91,5.72-1.37,8.87-1.37
	c3.15,0,6.13,0.46,8.87,1.37c2.75,0.92,5.16,2.23,7.18,3.89C471.74,341.11,473.62,345.06,473.62,349.77z M464.39,349.77
	c0-1.4-0.29-2.68-0.85-3.83c-0.57-1.15-1.39-2.15-2.43-2.97c-1.06-0.84-2.38-1.51-3.9-1.99c-1.54-0.48-3.29-0.72-5.21-0.72
	c-1.92,0-3.67,0.24-5.21,0.73c-1.52,0.48-2.84,1.15-3.9,1.99c-1.05,0.83-1.87,1.83-2.43,2.97c-0.57,1.14-0.85,2.43-0.85,3.83
	c0,1.43,0.28,2.74,0.83,3.9c0.55,1.15,1.36,2.16,2.41,2.98c1.06,0.84,2.36,1.5,3.88,1.97c1.53,0.47,3.29,0.71,5.23,0.71
	c1.95,0,3.72-0.24,5.26-0.71c1.52-0.46,2.83-1.12,3.89-1.96c1.05-0.83,1.86-1.83,2.43-2.99C464.1,352.51,464.39,351.2,464.39,349.77
	z M568.71,349.77c0,4.77-1.88,8.75-5.58,11.83c-2.01,1.66-4.42,2.96-7.14,3.87c-2.71,0.9-5.72,1.35-8.95,1.35
	c-3.2,0-6.21-0.45-8.93-1.35c-2.74-0.9-5.13-2.2-7.12-3.87c-1.83-1.5-3.23-3.28-4.15-5.27c-0.92-1.99-1.39-4.19-1.39-6.55
	c0-2.34,0.47-4.52,1.41-6.5c0.94-1.98,2.34-3.74,4.17-5.25c2.01-1.66,4.43-2.97,7.17-3.89c2.73-0.91,5.72-1.37,8.87-1.37
	c3.15,0,6.13,0.46,8.87,1.37c2.75,0.92,5.16,2.22,7.18,3.89C566.83,341.11,568.71,345.06,568.71,349.77z M559.48,349.77
	c0-1.4-0.29-2.68-0.85-3.83c-0.57-1.15-1.39-2.15-2.43-2.97c-1.06-0.84-2.38-1.51-3.9-1.99c-1.54-0.48-3.29-0.72-5.21-0.72
	c-1.92,0-3.67,0.24-5.21,0.73c-1.52,0.48-2.84,1.15-3.9,1.99c-1.05,0.83-1.87,1.83-2.43,2.97c-0.56,1.14-0.85,2.43-0.85,3.83
	c0,1.43,0.28,2.74,0.83,3.9c0.55,1.15,1.36,2.16,2.41,2.98c1.06,0.84,2.36,1.5,3.87,1.97c1.53,0.47,3.29,0.71,5.24,0.71
	c1.95,0,3.72-0.24,5.26-0.71c1.52-0.46,2.83-1.12,3.89-1.96c1.05-0.83,1.86-1.83,2.43-2.99
	C559.19,352.51,559.48,351.2,559.48,349.77z M612.61,344.52c0,3.42-1.1,6.07-3.27,7.89c-2.13,1.78-5.28,2.68-9.38,2.68h-16.59v10.84
	h-9.02V333.7h25.9c1.83,0,3.52,0.26,5.02,0.76c1.52,0.51,2.84,1.26,3.91,2.21c1.08,0.96,1.93,2.12,2.52,3.44
	C612.31,341.44,612.61,342.92,612.61,344.52z M603.68,344.48c0-1.11-0.33-1.92-1.01-2.48c-0.71-0.59-1.81-0.89-3.25-0.89h-16.04
	v6.57h16.08c1.39,0,2.46-0.3,3.19-0.9h0C603.34,346.22,603.68,345.47,603.68,344.48z M120.95,333.7h25.9v32.23h-9.02v-10.84
	l-13.16-0.14l-5.93,11.08h-5.82l-3.62,0.08l1.04-1.79l5.39-10.13c-4.7-1.34-7.13-4.91-7.13-9.66c0-1.6,0.3-3.08,0.89-4.41
	c0.59-1.32,1.44-2.48,2.52-3.44c1.08-0.96,2.39-1.7,3.91-2.21C117.44,333.96,119.13,333.7,120.95,333.7z M121.8,341.11
	c-1.41,0-2.5,0.31-3.23,0.91c-0.69,0.58-1.03,1.33-1.03,2.29c0,1.06,0.33,1.86,1.02,2.45c0.71,0.61,1.79,0.92,3.2,0.92h16.08v-6.57
	H121.8z M278.43,333.44h-8.91h-0.59l-17.59,32.66h9.6l13.04-24.48l12.65,24.48h10.06l-17.66-32.66H278.43z M327.21,333.45
	l17.66,32.66h-45.34l17.59-32.66h0.59h8.91H327.21z M330.72,358.03l-8.56-16.41l-8.78,16.41H330.72z M248.85,366.1h-0.26l0,0h-45.34
	l17.59-32.66h0.25l0,0h0.59h8.91h0.59L248.85,366.1z M234.45,358.03l-8.43-16.17l-8.86,16.17H234.45z M517.78,358.02h4.37v8.07
	h-45.34v-8.07h4.35l13.24-24.58h0.59h8.91h0.59L517.78,358.02z M508,358.02l-8.56-16.41l-8.78,16.41H508z"/>
<g>
	<g>
		<polygon class="st2" points="360.61,105.92 276.63,154.41 276.63,215.87 299.16,228.88 317.97,218.02 295.44,205.01 
			295.44,165.27 360.61,127.64 425.78,165.27 425.78,169.61 423.9,170.79 299.04,242.87 276.63,229.94 276.63,251.65 298.8,264.46 
			299.04,264.32 299.27,264.46 444.59,180.56 444.59,154.41 		"/>
		<polygon class="st2" points="330.14,282.28 425.78,227.06 425.78,240.52 341.8,289.01 360.61,299.87 444.59,251.38 444.59,194.48 
			311.33,271.42 		"/>
	</g>
</g>
</svg>
