<svg width="463" height="127" viewBox="0 0 463 127" fill="none" xmlns="http://www.w3.org/2000/svg">
<path fill-rule="evenodd" clip-rule="evenodd" d="M106.577 19.9136C98.2871 11.6183 84.6384 11.6062 76.3446 19.9045C67.9254 28.3204 67.8743 42.692 76.8537 50.7469C85.3811 58.3842 98.6831 58.2059 106.744 49.9714C114.9 41.6402 114.815 28.1469 106.577 19.9136ZM52.743 23.0109C51.9856 21.8982 51.1272 20.8611 50.1793 19.9136C46.311 16.0433 40.9641 13.6532 35.0578 13.6532C15.3604 13.6532 6.50237 38.2307 20.4553 50.7469C28.9739 58.3763 42.279 58.2108 50.3456 49.9714C51.2123 49.0859 52.0014 48.1243 52.7029 47.0993C53.1928 48.7374 53.779 50.3309 54.4578 51.8464C55.8044 54.8546 57.4992 57.6117 59.4713 60.0987C58.3356 61.2045 57.1231 62.2348 55.8403 63.1805C60.9635 66.9714 64.9766 72.0779 67.4268 77.9845C68.5218 80.6237 69.3034 83.4217 69.724 86.3297H56.2542L55.8403 86.324C54.9068 82.4323 52.9112 78.9577 50.1793 76.2266C41.8455 67.8898 28.2876 67.8724 19.9465 76.2172C11.5269 84.6335 11.4759 99.0047 20.4553 107.06C28.9826 114.697 42.2847 114.519 50.3456 106.284C51.2127 105.399 52.0018 104.437 52.7033 103.412C53.1931 105.05 53.7793 106.644 54.4581 108.159C55.8048 111.167 57.4995 113.924 59.4717 116.411C56.467 119.338 52.9195 121.734 48.9752 123.427C40.5242 127.063 30.9858 127.183 22.4062 123.916C3.88088 116.862 -4.80825 96.0639 2.68957 77.9845C5.12737 72.1088 9.13859 66.9906 14.2357 63.2088C9.3253 59.6697 5.61077 55.1724 3.09436 49.5519C-0.818964 40.8128 -0.976947 30.5117 2.68957 21.6714C6.25027 13.0881 13.1192 6.21846 21.7021 2.65663C25.8286 0.945639 30.3425 0 35.0578 0C44.2602 0 53.0034 3.61589 59.5715 10.0498C57.3011 12.9404 55.4132 16.1427 53.9895 19.5746C53.5238 20.6959 53.1077 21.8423 52.743 23.0109ZM126.483 91.3387C126.483 95.9652 125.558 100.43 123.879 104.535C120.415 112.996 113.784 119.818 105.374 123.427C96.9226 127.063 87.3842 127.183 78.8047 123.916C65.429 118.823 56.7818 106.63 56.4424 92.1819H70.0918C70.2517 97.8792 72.5681 103.216 76.8537 107.06C90.7779 119.531 112.829 109.841 112.829 91.3387L112.786 62.7674C110.527 64.5022 108.041 65.9686 105.374 67.1134C96.9226 70.7501 87.3842 70.8703 78.8047 67.6025C70.1107 64.2917 63.2773 58.0044 59.4925 49.5519C55.5792 40.8128 55.4215 30.5117 59.0881 21.6714C62.6488 13.0881 69.5177 6.21846 78.1006 2.65663C86.6098 -0.871179 96.302 -0.870802 104.811 2.65663C113.399 6.22035 120.263 13.0832 123.825 21.6714C125.584 25.9117 126.483 30.4399 126.483 35.0256V91.3387Z" fill="white"/>
<path d="M154.708 19.4608H156.575C156.782 19.149 156.974 18.6826 157.151 18.0601C157.327 17.438 157.477 16.7275 157.602 15.9285C157.726 15.1299 157.819 14.2688 157.882 13.3455C157.944 12.4225 157.975 11.4936 157.975 10.5604V5.89231H170.268V19.4608H172.445V26.2753H169.272V22.3854H157.882V26.2753H154.708V19.4608ZM166.845 19.4608V8.81727H161.274V11.1825C161.274 12.7801 161.181 14.3105 160.994 15.7727C160.807 17.235 160.496 18.4649 160.06 19.4608H166.845ZM182.404 22.7282C181.304 22.7282 180.266 22.5566 179.292 22.2146C178.317 21.8721 177.461 21.3532 176.724 20.6585C175.988 19.9639 175.401 19.087 174.966 18.0291C174.53 16.9705 174.313 15.7259 174.313 14.2942V13.6721C174.313 12.3024 174.52 11.1103 174.935 10.0936C175.35 9.07729 175.915 8.23144 176.631 7.55756C177.347 6.88253 178.171 6.3795 179.105 6.04803C180.039 5.71581 181.034 5.54987 182.092 5.54987C184.603 5.54987 186.527 6.22453 187.865 7.57269C189.204 8.92122 189.872 10.8503 189.872 13.3614V15.1034H177.798C177.818 15.9538 177.959 16.6749 178.218 17.266C178.477 17.8575 178.82 18.3353 179.245 18.6977C179.67 19.0609 180.158 19.3255 180.708 19.4918C181.258 19.6577 181.823 19.7405 182.404 19.7405C183.586 19.7405 184.452 19.5538 185.002 19.18C185.552 18.8066 185.93 18.3194 186.138 17.7177H189.561C189.229 19.3565 188.415 20.6011 187.119 21.4519C185.822 22.303 184.25 22.7282 182.404 22.7282ZM182.248 8.53757C181.667 8.53757 181.112 8.60979 180.583 8.7553C180.054 8.90082 179.588 9.13361 179.183 9.45562C178.778 9.77726 178.451 10.1923 178.202 10.7002C177.954 11.209 177.818 11.8258 177.798 12.5522H186.449C186.429 11.7842 186.31 11.1413 186.092 10.6224C185.873 10.1042 185.578 9.68921 185.205 9.37778C184.831 9.06673 184.39 8.84827 183.882 8.7243C183.374 8.59958 182.829 8.53757 182.248 8.53757ZM193.296 5.89231H207.611V22.3854H204.187V8.81727H196.719V22.3854H193.296V5.89231ZM216.791 22.7282C215.899 22.7282 215.106 22.5986 214.41 22.3385C213.716 22.0796 213.129 21.7164 212.652 21.2497C212.175 20.7833 211.812 20.2379 211.563 19.6158C211.314 18.9933 211.189 18.3088 211.189 17.562C211.189 15.9228 211.677 14.7046 212.652 13.9056C213.627 13.107 215.059 12.7072 216.946 12.7072H222.081V11.805C222.081 10.5604 221.807 9.70433 221.257 9.23756C220.707 8.77117 219.84 8.53757 218.658 8.53757C217.6 8.53757 216.822 8.7035 216.324 9.03497C215.827 9.36719 215.535 9.82338 215.453 10.4047H212.123C212.165 9.69942 212.346 9.05085 212.668 8.45973C212.989 7.86824 213.435 7.35499 214.006 6.91921C214.576 6.4838 215.266 6.14665 216.075 5.90741C216.884 5.66892 217.797 5.54987 218.813 5.54987C219.83 5.54987 220.748 5.66441 221.568 5.89231C222.387 6.1206 223.087 6.47811 223.668 6.96604C224.249 7.45323 224.701 8.08141 225.022 8.84828C225.344 9.6159 225.504 10.5396 225.504 11.6183V18.1841C225.504 19.056 225.515 19.8184 225.535 20.4718C225.557 21.1249 225.608 21.7633 225.691 22.3854H222.579C222.517 21.9088 222.471 21.504 222.44 21.1718C222.409 20.8396 222.393 20.425 222.393 19.9272C221.998 20.6952 221.319 21.3532 220.354 21.9032C219.39 22.4531 218.202 22.7282 216.791 22.7282ZM217.725 19.7405C218.305 19.7405 218.86 19.6626 219.39 19.5069C219.918 19.352 220.38 19.1229 220.774 18.8224C221.168 18.522 221.485 18.1486 221.723 17.7018C221.962 17.2558 222.081 16.7425 222.081 16.1613V15.2591H217.569C216.698 15.2591 215.997 15.4462 215.468 15.8196C214.939 16.193 214.675 16.7426 214.675 17.469C214.675 18.1531 214.919 18.7034 215.406 19.118C215.894 19.533 216.667 19.7405 217.725 19.7405ZM229.706 5.89231H232.879V8.66233C233.378 7.70762 234.119 6.9502 235.105 6.39007C236.09 5.83032 237.205 5.54987 238.45 5.54987C240.607 5.54987 242.309 6.22453 243.554 7.57269C244.798 8.92122 245.421 10.9546 245.421 13.6721V14.2942C245.421 15.7051 245.255 16.9395 244.923 17.9974C244.591 19.056 244.119 19.9321 243.507 20.6276C242.895 21.3222 242.163 21.8461 241.313 22.1987C240.463 22.5517 239.508 22.7282 238.45 22.7282C237.267 22.7282 236.189 22.4682 235.214 21.95C234.238 21.4311 233.544 20.7054 233.129 19.7715V28.6099H229.706V5.89231ZM237.641 19.7405C238.927 19.7405 239.964 19.2945 240.753 18.4018C241.541 17.5102 241.935 16.1409 241.935 14.2942V13.6721C241.935 11.9297 241.551 10.6383 240.784 9.79807C240.016 8.95712 238.969 8.53757 237.641 8.53757C237.06 8.53757 236.5 8.63057 235.96 8.81727C235.421 9.00398 234.939 9.27914 234.514 9.64235C234.088 10.0056 233.751 10.4617 233.501 11.0117C233.253 11.5608 233.129 12.189 233.129 12.8939V15.0724C233.129 15.8608 233.253 16.5453 233.501 17.1262C233.751 17.7075 234.083 18.1947 234.497 18.5889C234.912 18.9831 235.39 19.2737 235.929 19.4608C236.469 19.6475 237.039 19.7405 237.641 19.7405ZM252.422 8.81727H246.976V5.89231H261.291V8.81727H255.846V22.3854H252.422V8.81727ZM267.981 22.7282C267.09 22.7282 266.296 22.5986 265.601 22.3385C264.906 22.0796 264.32 21.7164 263.843 21.2497C263.366 20.7833 263.003 20.2379 262.754 19.6158C262.504 18.9933 262.38 18.3088 262.38 17.562C262.38 15.9228 262.868 14.7046 263.843 13.9056C264.818 13.107 266.25 12.7072 268.137 12.7072H273.272V11.805C273.272 10.5604 272.998 9.70433 272.448 9.23756C271.898 8.77117 271.031 8.53757 269.849 8.53757C268.791 8.53757 268.013 8.7035 267.515 9.03497C267.018 9.36719 266.727 9.82338 266.644 10.4047H263.314C263.356 9.69942 263.537 9.05085 263.859 8.45973C264.18 7.86824 264.626 7.35499 265.197 6.91921C265.767 6.4838 266.457 6.14665 267.266 5.90741C268.075 5.66892 268.988 5.54987 270.004 5.54987C271.021 5.54987 271.939 5.66441 272.758 5.89231C273.578 6.1206 274.278 6.47811 274.859 6.96604C275.44 7.45323 275.892 8.08141 276.213 8.84828C276.534 9.6159 276.695 10.5396 276.695 11.6183V18.1841C276.695 19.056 276.705 19.8184 276.726 20.4718C276.748 21.1249 276.799 21.7633 276.882 22.3854H273.77C273.708 21.9088 273.661 21.504 273.63 21.1718C273.599 20.8396 273.583 20.425 273.583 19.9272C273.189 20.6952 272.51 21.3532 271.545 21.9032C270.581 22.4531 269.392 22.7282 267.981 22.7282ZM268.915 19.7405C269.497 19.7405 270.051 19.6626 270.581 19.5069C271.109 19.352 271.571 19.1229 271.965 18.8224C272.36 18.522 272.676 18.1486 272.914 17.7018C273.153 17.2558 273.272 16.7425 273.272 16.1613V15.2591H268.76C267.888 15.2591 267.188 15.4462 266.659 15.8196C266.131 16.193 265.866 16.7426 265.866 17.469C265.866 18.1531 266.11 18.7034 266.597 19.118C267.085 19.533 267.857 19.7405 268.915 19.7405ZM280.896 5.89231H284.755L290.014 15.5391L295.273 5.89231H298.945V22.3854H295.523V11.0268L291.165 18.9623H288.676L284.32 11.0268V22.3854H280.896V5.89231ZM310.459 22.7282C309.36 22.7282 308.323 22.5566 307.348 22.2146C306.373 21.8721 305.517 21.3532 304.78 20.6585C304.044 19.9639 303.457 19.087 303.022 18.0291C302.586 16.9705 302.368 15.7259 302.368 14.2942V13.6721C302.368 12.3024 302.576 11.1103 302.991 10.0936C303.406 9.07729 303.971 8.23144 304.687 7.55756C305.403 6.88253 306.227 6.3795 307.161 6.04803C308.094 5.71581 309.09 5.54987 310.148 5.54987C312.659 5.54987 314.583 6.22453 315.921 7.57269C317.259 8.92122 317.929 10.8503 317.929 13.3614V15.1034H305.854C305.874 15.9538 306.015 16.6749 306.274 17.266C306.533 17.8575 306.876 18.3353 307.301 18.6977C307.726 19.0609 308.214 19.3255 308.764 19.4918C309.313 19.6577 309.879 19.7405 310.459 19.7405C311.642 19.7405 312.508 19.5538 313.058 19.18C313.608 18.8066 313.986 18.3194 314.194 17.7177H317.617C317.285 19.3565 316.471 20.6011 315.174 21.4519C313.877 22.303 312.306 22.7282 310.459 22.7282ZM310.304 8.53757C309.723 8.53757 309.168 8.60979 308.639 8.7553C308.11 8.90082 307.644 9.13361 307.239 9.45562C306.835 9.77726 306.507 10.1923 306.258 10.7002C306.009 11.209 305.874 11.8258 305.854 12.5522H314.505C314.485 11.7842 314.365 11.1413 314.148 10.6224C313.929 10.1042 313.634 9.68921 313.26 9.37778C312.887 9.06673 312.446 8.84827 311.938 8.7243C311.429 8.59958 310.885 8.53757 310.304 8.53757ZM321.352 5.89231H324.775V12.5205H332.555V5.89231H335.978V22.3854H332.555V15.4462H324.775V22.3854H321.352V5.89231ZM344.224 8.81727H338.778V5.89231H353.093V8.81727H347.647V22.3854H344.224V8.81727Z" fill="white"/>
<path d="M154.708 36.5688H162.357V60.2831L177.912 36.5688H185.307V72.2679H177.657V48.5537L162.051 72.2679H154.708V36.5688ZM201.881 42.8927H190.406V36.5688H221.006V42.8927H209.531V72.2679H201.881V42.8927ZM238.856 36.5688H246.505V60.2831L262.06 36.5688H269.455V72.2679H261.805V48.5537L246.199 72.2679H238.856V36.5688ZM304.899 72.8799C302.553 72.8799 300.402 72.5401 298.447 71.8601C296.492 71.1802 294.801 70.1174 293.373 68.6725C291.945 67.2276 290.832 65.3492 290.033 63.0372C289.234 60.7253 288.834 57.9375 288.834 54.6735V53.6534C288.834 50.5255 289.251 47.848 290.084 45.6211C290.917 43.3942 292.055 41.5665 293.5 40.1389C294.945 38.7107 296.645 37.6565 298.6 36.9766C300.556 36.297 302.655 35.9569 304.899 35.9569C306.905 35.9569 308.792 36.195 310.56 36.6708C312.328 37.1467 313.883 37.8864 315.226 38.8894C316.569 39.8925 317.657 41.1757 318.49 42.7396C319.323 44.3036 319.807 46.1563 319.943 48.2986H311.988C311.613 46.2584 310.798 44.7628 309.54 43.8108C308.282 42.8587 306.735 42.3828 304.899 42.3828C303.845 42.3828 302.833 42.5695 301.864 42.9437C300.895 43.3175 300.037 43.9465 299.289 44.8309C298.541 45.7145 297.938 46.8707 297.479 48.2986C297.019 49.7265 296.79 51.5115 296.79 53.6534V54.6735C296.79 56.9174 297.028 58.7958 297.504 60.3088C297.98 61.8217 298.6 63.0289 299.365 63.9295C300.13 64.8306 300.997 65.4769 301.966 65.8673C302.936 66.2585 303.913 66.4539 304.899 66.4539C306.837 66.4539 308.434 65.9527 309.693 64.9496C310.951 63.9466 311.715 62.4763 311.988 60.5382H319.943C319.773 62.7825 319.28 64.6862 318.464 66.2502C317.648 67.8142 316.577 69.089 315.252 70.0751C313.925 71.0612 312.378 71.7747 310.61 72.2169C308.843 72.6591 306.939 72.8799 304.899 72.8799ZM326.063 36.5688H341.363C345.375 36.5688 348.333 37.4105 350.237 39.0931C352.141 40.7762 353.093 43.1134 353.093 46.1057C353.093 47.9418 352.642 49.5141 351.741 50.8229C350.84 52.1318 349.607 53.0755 348.043 53.6534C350.084 54.1292 351.69 55.09 352.863 56.5349C354.036 57.9798 354.622 59.8582 354.622 62.1702C354.622 63.7001 354.385 65.0857 353.909 66.3265C353.432 67.5677 352.693 68.6298 351.69 69.5142C350.687 70.3979 349.386 71.0778 347.789 71.554C346.191 72.0302 344.27 72.2679 342.026 72.2679H326.063V36.5688ZM340.649 66.4539C343.028 66.4539 344.678 66.0461 345.595 65.2301C346.514 64.4141 346.973 63.2069 346.973 61.6093C346.973 60.0113 346.514 58.7618 345.595 57.8608C344.678 56.9597 343.012 56.5092 340.598 56.5092H333.713V66.4539H340.649ZM339.833 51.3074C341.907 51.3074 343.36 50.8996 344.193 50.0833C345.026 49.2676 345.443 48.1625 345.443 46.7686C345.443 45.3407 345.035 44.2526 344.219 43.5046C343.403 42.7566 341.958 42.3828 339.884 42.3828H333.713V51.3074H339.833ZM367.576 58.3963C365.026 57.5803 363.122 56.2711 361.864 54.4694C360.607 52.6677 359.977 50.5255 359.977 48.0438C359.977 46.3098 360.266 44.7371 360.844 43.3262C361.422 41.9153 362.273 40.7082 363.394 39.7051C364.517 38.7024 365.919 37.929 367.602 37.3848C369.284 36.8409 371.248 36.5688 373.492 36.5688H388.027V72.2679H380.377V59.2123H374.716L366.811 72.2679H358.447L367.576 58.3963ZM367.627 48.0438C367.627 48.8935 367.746 49.6414 367.984 50.2877C368.222 50.9337 368.63 51.4688 369.208 51.894C369.786 52.3192 370.543 52.6416 371.478 52.8631C372.413 53.0842 373.594 53.1942 375.022 53.1942H380.377V42.8927H375.022C373.594 42.8927 372.413 43.0034 371.478 43.2242C370.543 43.4453 369.786 43.7681 369.208 44.1933C368.63 44.6181 368.222 45.1536 367.984 45.7999C367.746 46.4455 367.627 47.1934 367.627 48.0438ZM408.681 72.8799C403.955 72.8799 400.351 71.8174 397.869 69.6926C395.387 67.5677 394.061 64.6862 393.891 61.0484H401.847C402.017 62.7825 402.646 64.1166 403.734 65.0517C404.822 65.9868 406.471 66.4539 408.681 66.4539C411.061 66.4539 412.795 66.0121 413.883 65.128C414.971 64.244 415.515 63.0372 415.515 61.5073C415.515 59.9773 414.996 58.7618 413.96 57.8608C412.922 56.9597 411.078 56.5092 408.426 56.5092H404.652V51.3074H408.426C409.48 51.3074 410.381 51.1801 411.129 50.9249C411.877 50.6702 412.481 50.3297 412.939 49.9052C413.398 49.4801 413.73 48.9785 413.934 48.4006C414.138 47.8227 414.24 47.2108 414.24 46.5645C414.24 45.3067 413.798 44.2949 412.914 43.53C412.03 42.765 410.619 42.3828 408.681 42.3828C406.709 42.3828 405.239 42.7483 404.27 43.4793C403.301 44.2102 402.748 45.3914 402.612 47.0234H394.656C394.826 43.4196 396.051 40.6741 398.329 38.7874C400.606 36.9003 404.057 35.9569 408.681 35.9569C413.271 35.9569 416.671 36.8492 418.881 38.6343C421.091 40.419 422.196 42.8927 422.196 46.0547C422.196 47.9244 421.737 49.5141 420.819 50.8229C419.901 52.1318 418.558 53.0755 416.79 53.6534C418.966 54.1633 420.623 55.141 421.762 56.5859C422.901 58.0308 423.471 59.9093 423.471 62.2212C423.471 63.7852 423.165 65.2218 422.553 66.5306C421.941 67.8395 421.023 68.9616 419.799 69.8967C418.575 70.8317 417.036 71.5623 415.183 72.0896C413.33 72.6164 411.163 72.8799 408.681 72.8799ZM429.693 36.5688H437.342V60.2831L452.897 36.5688H460.292V72.2679H452.642V48.5537L437.037 72.2679H429.693V36.5688Z" fill="white"/>
<path d="M163.837 106.998C161.287 106.182 159.383 104.873 158.125 103.071C156.867 101.269 156.238 99.1276 156.238 96.6455C156.238 94.9115 156.527 93.3388 157.105 91.9279C157.683 90.517 158.533 89.3102 159.655 88.3071C160.777 87.3041 162.179 86.5308 163.862 85.9865C165.545 85.4426 167.509 85.1705 169.753 85.1705H184.287V120.87H176.637V107.814H170.976L163.071 120.87H154.708L163.837 106.998ZM163.887 96.6455C163.887 97.4956 164.007 98.2432 164.245 98.8895C164.483 99.5354 164.891 100.071 165.469 100.496C166.047 100.921 166.803 101.244 167.738 101.465C168.673 101.686 169.855 101.796 171.283 101.796H176.637V91.4944H171.283C169.855 91.4944 168.673 91.6051 167.738 91.8259C166.803 92.047 166.047 92.3698 165.469 92.795C164.891 93.2202 164.483 93.7553 164.245 94.4016C164.007 95.0476 163.887 95.7952 163.887 96.6455ZM192.447 85.1705H200.097V99.3483H215.396V85.1705H223.046V120.87H215.396V105.672H200.097V120.87H192.447V85.1705ZM250.993 113.577H237.784L235.082 120.87H227.636L240.895 85.1705H248.546L261.805 120.87H253.747L250.993 113.577ZM240.13 107.253H248.698L244.414 94.8605L240.13 107.253ZM280.675 121.482C278.431 121.482 276.297 121.142 274.274 120.462C272.251 119.782 270.466 118.711 268.919 117.249C267.372 115.787 266.14 113.909 265.222 111.614C264.304 109.319 263.845 106.539 263.845 103.275V102.255C263.845 99.1276 264.304 96.4498 265.222 94.2229C266.14 91.996 267.372 90.1686 268.919 88.7406C270.466 87.3127 272.251 86.2587 274.274 85.5787C276.297 84.8988 278.431 84.5586 280.675 84.5586C282.919 84.5586 285.052 84.8988 287.075 85.5787C289.098 86.2587 290.883 87.3127 292.43 88.7406C293.977 90.1686 295.209 91.996 296.127 94.2229C297.046 96.4498 297.504 99.1276 297.504 102.255V103.275C297.504 106.539 297.046 109.319 296.127 111.614C295.209 113.909 293.977 115.787 292.43 117.249C290.883 118.711 289.098 119.782 287.075 120.462C285.052 121.142 282.919 121.482 280.675 121.482ZM280.675 115.056C281.831 115.056 282.944 114.861 284.015 114.469C285.086 114.079 286.03 113.424 286.845 112.506C287.661 111.588 288.316 110.381 288.809 108.885C289.302 107.389 289.548 105.52 289.548 103.275V102.255C289.548 100.147 289.302 98.3792 288.809 96.9513C288.316 95.5234 287.661 94.3676 286.845 93.4836C286.03 92.5996 285.086 91.962 284.015 91.5712C282.944 91.18 281.831 90.9846 280.675 90.9846C279.519 90.9846 278.405 91.18 277.334 91.5712C276.263 91.962 275.32 92.5996 274.504 93.4836C273.688 94.3676 273.033 95.5234 272.54 96.9513C272.047 98.3792 271.801 100.147 271.801 102.255V103.275C271.801 105.52 272.047 107.389 272.54 108.885C273.033 110.381 273.688 111.588 274.504 112.506C275.32 113.424 276.263 114.079 277.334 114.469C278.405 114.861 279.519 115.056 280.675 115.056Z" fill="white"/>
<path fill-rule="evenodd" clip-rule="evenodd" d="M313.045 121.482V84.5575H306.545H306.241V121.482H313.045Z" fill="white"/>
<path fill-rule="evenodd" clip-rule="evenodd" d="M318.452 103.019C318.452 107.11 320.11 110.815 322.791 113.497C325.473 116.178 329.176 117.836 333.268 117.836C337.359 117.836 341.063 116.177 343.744 113.496C346.425 110.815 348.084 107.111 348.084 103.019C348.084 98.9284 346.425 95.2241 343.744 92.5429C341.063 89.8617 337.358 88.2029 333.268 88.2029C329.176 88.2029 325.473 89.8617 322.791 92.5429C320.11 95.2241 318.452 98.9284 318.452 103.019ZM333.268 111.701C330.871 111.701 328.7 110.728 327.129 109.158C325.558 107.587 324.585 105.416 324.585 103.019C324.585 100.622 325.558 98.4522 327.129 96.8818C328.699 95.311 330.871 94.3389 333.268 94.3389C335.665 94.3389 337.836 95.311 339.406 96.8814C340.977 98.4518 341.949 100.622 341.949 103.019C341.949 105.416 340.977 107.587 339.406 109.158C337.835 110.728 335.664 111.701 333.268 111.701Z" fill="white"/>
<path fill-rule="evenodd" clip-rule="evenodd" d="M353.49 84.5575V121.482H360.294V84.5575H353.795H353.49Z" fill="white"/>
<path fill-rule="evenodd" clip-rule="evenodd" d="M365.701 84.5575V114.005H369.157V121.482H375.854H376.159V113.395H372.505V84.5575H366.006H365.701Z" fill="white"/>
<path fill-rule="evenodd" clip-rule="evenodd" d="M381.566 103.019C381.566 107.11 383.224 110.815 385.906 113.497C388.587 116.178 392.291 117.836 396.382 117.836C400.473 117.836 404.177 116.177 406.858 113.496C409.539 110.815 411.197 107.111 411.197 103.019C411.197 98.9284 409.539 95.2241 406.858 92.5429C404.177 89.8617 400.472 88.2029 396.382 88.2029C392.291 88.2029 388.587 89.8617 385.906 92.5429C383.224 95.2241 381.566 98.9284 381.566 103.019ZM390.243 109.158C388.672 107.587 387.7 105.416 387.7 103.019C387.7 100.622 388.672 98.4522 390.243 96.8818C391.814 95.311 393.985 94.3389 396.382 94.3389C398.779 94.3389 400.95 95.311 402.52 96.8814C404.091 98.4518 405.062 100.622 405.062 103.019C405.062 105.416 404.091 107.587 402.52 109.158C400.949 110.728 398.778 111.701 396.382 111.701C393.985 111.701 391.814 110.728 390.243 109.158Z" fill="white"/>
<path fill-rule="evenodd" clip-rule="evenodd" d="M416.605 103.019C416.605 107.109 418.263 110.813 420.944 113.497C423.625 116.178 427.33 117.836 431.42 117.836C435.511 117.836 439.216 116.178 441.897 113.495C444.578 110.813 446.236 107.109 446.236 103.019C446.236 98.9284 444.578 95.2241 441.897 92.5429C439.215 89.8617 435.511 88.2029 431.42 88.2029C427.33 88.2029 423.626 89.8617 420.944 92.5429C418.263 95.2241 416.605 98.9284 416.605 103.019ZM431.42 111.701C429.024 111.701 426.854 110.728 425.283 109.158C423.712 107.587 422.74 105.416 422.74 103.019C422.74 100.622 423.712 98.4518 425.283 96.8814C426.853 95.311 429.024 94.3389 431.42 94.3389C433.817 94.3389 435.988 95.3114 437.559 96.8818C439.13 98.4522 440.102 100.623 440.102 103.019C440.102 105.416 439.13 107.587 437.559 109.158C435.988 110.728 433.817 111.701 431.42 111.701Z" fill="white"/>
<path fill-rule="evenodd" clip-rule="evenodd" d="M455.784 103.325V121.482H462.587V102.714H458.447V84.5575H451.948H451.643V103.325H455.784Z" fill="white"/>
</svg>
